<?xml version="1.0" encoding="UTF-8"?>
<svg version="1.1" xmlns="http://www.w3.org/2000/svg" width="980" height="980">
<path d="M0 0 C323.4 0 646.8 0 980 0 C980 323.4 980 646.8 980 980 C656.6 980 333.2 980 0 980 C0 656.6 0 333.2 0 0 Z " fill="#FEFEFE" transform="translate(0,0)"/>
<path d="M0 0 C0.93532562 -0.00807175 1.87065125 -0.01614349 2.83432007 -0.02445984 C4.81270537 -0.03823329 6.79111377 -0.04898528 8.76953125 -0.05688477 C10.74714372 -0.06829654 12.72472812 -0.08857217 14.70214844 -0.1184082 C36.95046599 -0.45284294 61.74740742 2.16216125 81.99926758 12.2199707 C84.22417311 13.27416597 86.47238414 14.15273735 88.7734375 15.02734375 C94.12880644 17.15388459 99.12161908 19.74509246 104.1484375 22.55078125 C105.01839355 23.03208496 105.88834961 23.51338867 106.78466797 24.00927734 C112.24171338 27.06550907 117.44685082 30.26094453 122.46875 33.99609375 C124.13665221 35.30416303 124.13665221 35.30416303 126.1484375 36.23828125 C126.1484375 36.89828125 126.1484375 37.55828125 126.1484375 38.23828125 C126.8496875 38.45613281 127.5509375 38.67398438 128.2734375 38.8984375 C131.84537035 40.56307468 134.35992167 42.96157866 137.1484375 45.67578125 C140.61076692 49.01947756 143.99162973 51.78736611 148.1484375 54.23828125 C149.94921875 55.9921875 149.94921875 55.9921875 151.4609375 57.80078125 C151.97269531 58.40019531 152.48445313 58.99960937 153.01171875 59.6171875 C154.1484375 61.23828125 154.1484375 61.23828125 154.1484375 63.23828125 C151.15221783 61.90865062 149.26916878 60.50272917 147.08203125 58.078125 C142.64651522 53.5199571 137.54716838 50.21834752 132.2109375 46.80078125 C131.19040283 46.14408447 130.16986816 45.4873877 129.1184082 44.81079102 C110.09156792 32.72457797 90.36192924 25.19647252 68.1484375 21.23828125 C67.14804443 21.0587793 66.14765137 20.87927734 65.11694336 20.69433594 C56.2144143 19.25230937 47.52728922 18.92829438 38.53540039 18.97753906 C36.21669282 18.98825465 33.89876237 18.97757705 31.58007812 18.96484375 C16.84774198 18.95018879 3.26924753 20.8214982 -10.8515625 25.23828125 C-12.00140625 25.57085937 -13.15125 25.9034375 -14.3359375 26.24609375 C-19.75037665 27.83050336 -24.82594154 29.47874719 -29.7800293 32.19165039 C-31.96083152 33.29348882 -34.15502001 34.13484821 -36.4453125 34.984375 C-42.05475776 37.20682091 -47.06203306 40.09986121 -52.1640625 43.30078125 C-53.08050537 43.87296387 -53.99694824 44.44514648 -54.94116211 45.03466797 C-62.52056157 49.85688968 -69.25130951 55.16887971 -75.8515625 61.23828125 C-76.88388021 62.15407863 -77.9177539 63.06812486 -78.953125 63.98046875 C-87.52160105 71.59494558 -95.60873401 79.5668127 -101.8515625 89.23828125 C-102.53734375 90.25664062 -103.223125 91.275 -103.9296875 92.32421875 C-109.64398202 100.97788059 -114.43197302 109.862267 -118.8515625 119.23828125 C-119.26277344 120.10453125 -119.67398438 120.97078125 -120.09765625 121.86328125 C-121.06521178 123.97157346 -121.97499315 126.09068633 -122.8515625 128.23828125 C-123.17640625 129.02589844 -123.50125 129.81351563 -123.8359375 130.625 C-138.5287373 168.43070411 -136.5208327 210.31230385 -123.8515625 248.23828125 C-123.45066406 249.47835937 -123.04976563 250.7184375 -122.63671875 251.99609375 C-113.10319921 279.06993216 -93.60472228 303.87380465 -71.8515625 322.23828125 C-71.19542969 322.80546875 -70.53929687 323.37265625 -69.86328125 323.95703125 C-62.1761129 330.28588441 -53.39973256 335.1786914 -44.8515625 340.23828125 C-44.24513916 340.60646973 -43.63871582 340.9746582 -43.01391602 341.35400391 C-38.82445365 343.84721029 -34.60896035 345.61223744 -30.0390625 347.23828125 C-28.71959184 347.71617908 -27.40058775 348.19536693 -26.08203125 348.67578125 C-25.40188965 348.92158936 -24.72174805 349.16739746 -24.02099609 349.4206543 C-21.66361744 350.30911492 -19.3506361 351.28392103 -17.02734375 352.2578125 C-11.7420922 354.38446452 -6.40893319 355.71545752 -0.8515625 356.92578125 C0.52902344 357.24385742 0.52902344 357.24385742 1.9375 357.56835938 C12.86263131 360.00727953 23.55888696 360.42480178 34.71508789 360.42358398 C36.94632159 360.42576695 39.17705658 360.44397636 41.40820312 360.46289062 C66.01661168 360.56457051 91.27665306 354.54286278 113.1484375 343.23828125 C114.05335938 342.78171143 114.05335938 342.78171143 114.9765625 342.31591797 C125.44078766 337.01724643 135.45650192 331.15760033 144.1484375 323.23828125 C144.8084375 323.56828125 145.4684375 323.89828125 146.1484375 324.23828125 C137.66869901 332.43630085 129.02410793 339.77787675 119.1484375 346.23828125 C118.42833496 346.71265625 117.70823242 347.18703125 116.96630859 347.67578125 C77.488143 373.35372423 25.89526602 385.46927819 -20.8515625 376.23828125 C-33.46979504 373.45172328 -45.96635692 370.37244663 -57.8515625 365.23828125 C-59.28242188 364.62533203 -59.28242188 364.62533203 -60.7421875 364 C-63.4544992 362.76508987 -66.15468728 361.50656074 -68.8515625 360.23828125 C-69.89957031 359.75875 -70.94757813 359.27921875 -72.02734375 358.78515625 C-91.39984403 349.57930837 -107.57068267 336.60230735 -122.7265625 321.61328125 C-123.4285376 320.92081299 -124.1305127 320.22834473 -124.85375977 319.51489258 C-129.61965904 314.71838089 -133.82410979 309.66594172 -137.8515625 304.23828125 C-138.30917969 303.62404297 -138.76679688 303.00980469 -139.23828125 302.37695312 C-146.39934872 292.65679253 -152.71417762 282.84165355 -157.9140625 271.92578125 C-158.23068848 271.26280029 -158.54731445 270.59981934 -158.87353516 269.91674805 C-163.87600245 259.17313377 -167.63866326 248.22095523 -170.5390625 236.73828125 C-170.83361328 235.61808594 -171.12816406 234.49789062 -171.43164062 233.34375 C-175.10327531 219.03675104 -176.22455383 205.47380321 -176.22216797 190.7578125 C-176.22651409 187.77154288 -176.26286526 184.7867883 -176.30078125 181.80078125 C-176.40946658 163.64321064 -173.58932678 146.6386657 -167.6015625 129.48828125 C-167.20952637 128.34560791 -166.81749023 127.20293457 -166.41357422 126.02563477 C-159.63073324 106.663483 -150.18776225 87.96599361 -136.8515625 72.23828125 C-136.05492187 71.25988281 -135.25828125 70.28148437 -134.4375 69.2734375 C-125.01398066 57.78717022 -114.80844424 47.1123902 -102.8515625 38.23828125 C-101.85253906 37.47257812 -100.85351562 36.706875 -99.82421875 35.91796875 C-86.45470377 25.86195882 -71.70204781 17.6302352 -55.8515625 12.23828125 C-54.55818141 11.74273294 -53.26631252 11.24320466 -51.9765625 10.73828125 C-50.60393024 10.23181736 -49.22849627 9.73293103 -47.8515625 9.23828125 C-46.76488281 8.84640625 -45.67820312 8.45453125 -44.55859375 8.05078125 C-30.04574934 2.99760434 -15.39765551 0.13013678 0 0 Z " fill="#040404" transform="translate(457.8515625,293.76171875)"/>
<path d="M0 0 C45.54 0 91.08 0 138 0 C138.99 9.24 139.98 18.48 141 28 C148.07038271 66.21828489 161.29209039 98.99117745 185 130 C185.42907654 130.59287308 185.85815308 131.18574615 186.30023193 131.79658508 C189.79624348 136.59435017 193.56446203 140.87171893 197.76171875 145.0625 C198.70867363 146.01588257 198.70867363 146.01588257 199.67475891 146.98852539 C201.00256085 148.32202825 202.3329339 149.65297557 203.66577148 150.98144531 C205.67387527 152.98639666 207.66829004 155.0042928 209.66210938 157.0234375 C216.71031492 164.10583745 223.68033664 170.4250949 232 176 C233.50344213 177.09947523 235.00393116 178.20301271 236.5 179.3125 C241.3894565 182.71625348 246.48660561 185.74190651 251.625 188.75 C252.82479492 189.45829956 252.82479492 189.45829956 254.04882812 190.1809082 C258.92488612 192.99692229 263.69540087 195.11959506 269 197 C270.66666667 198 272.33333333 199 274 200 C285.75782727 204.57178676 297.74301252 208.51920177 309.9375 211.75 C310.68104736 211.94835449 311.42459473 212.14670898 312.19067383 212.35107422 C330.3083682 217.02699534 346.63190445 216.92399469 366 218 C366 262.88 366 307.76 366 354 C363.71683626 350.57525439 362.71199443 347.15045169 361.5625 343.25 C360.00672226 337.98882103 358.1719647 333.04896507 356 328 C355.1546238 325.42202109 354.34500788 322.84661024 353.5625 320.25 C350.5868295 310.59295733 347.29845818 301.0501022 344 291.5 C340.25271569 280.64353956 336.55927304 269.7838386 333.18359375 258.8046875 C332.29547337 255.94980547 331.39879209 253.10043055 330.47265625 250.2578125 C330.2394165 249.53996582 330.00617676 248.82211914 329.76586914 248.08251953 C329.03692346 245.96009628 329.03692346 245.96009628 327.90795898 243.92138672 C327 242 327 242 327 239 C326.44957031 238.98582031 325.89914062 238.97164062 325.33203125 238.95703125 C281.23825925 236.42762107 232.98643456 211.43377121 201 182 C200.47664062 181.38511719 199.95328125 180.77023437 199.4140625 180.13671875 C198.94742188 179.76160156 198.48078125 179.38648438 198 179 C195.01814552 179.47145802 192.85301723 180.54072366 190.33203125 182.16015625 C189.61595703 182.61624268 188.89988281 183.0723291 188.16210938 183.54223633 C187.38673828 184.04392334 186.61136719 184.54561035 185.8125 185.0625 C184.58563477 185.84693481 184.58563477 185.84693481 183.33398438 186.6472168 C181.53313398 187.79952674 179.7338968 188.9543606 177.93603516 190.11132812 C174.81905962 192.11639405 171.69715565 194.11360782 168.57421875 196.109375 C164.33933008 198.81618849 160.10621009 201.52572141 155.875 204.23828125 C151.03637214 207.34002751 146.1873185 210.42499363 141.33227539 213.50097656 C139.34169598 214.78038173 137.38572998 216.09510594 135.4375 217.4375 C133 219 133 219 131 219 C132.4997213 213.15108693 135.60469781 208.88169004 139 204 C143.84441106 196.85813219 148.50864294 189.63082531 153.06176758 182.30151367 C156.30664503 177.08695395 159.60478337 171.9088475 162.9375 166.75 C163.39809814 166.03497314 163.85869629 165.31994629 164.33325195 164.58325195 C164.76855225 163.91124756 165.20385254 163.23924316 165.65234375 162.546875 C166.25925049 161.60618164 166.25925049 161.60618164 166.87841797 160.64648438 C168 159 168 159 169.87890625 156.828125 C171.22670368 155.00789421 171.22670368 155.00789421 170.9140625 152.54296875 C169.84007295 149.55507476 168.43839109 147.72244519 166.375 145.3125 C156.03082573 132.83322926 147.8907832 119.1700833 140.80859375 104.640625 C139.44262966 101.85063095 137.96872082 99.16808214 136.375 96.5 C130.67784282 86.34006969 127.52917591 74.79397101 124.25 63.6875 C123.95625488 62.69806396 123.66250977 61.70862793 123.35986328 60.68920898 C121.48298629 54.18092906 120.08305243 47.68564014 119 41 C117.94723877 40.66266846 116.89447754 40.32533691 115.80981445 39.9777832 C111.84066093 38.70485923 107.87311959 37.4269705 103.90600586 36.14770508 C102.20070115 35.59853371 100.49498289 35.05064461 98.78881836 34.50415039 C89.67596249 31.58428967 80.66798558 28.56849424 71.7644043 25.05639648 C67.98104246 23.61061297 64.15021249 22.45690019 60.25 21.375 C58.79005476 20.95680928 57.33041498 20.53755059 55.87109375 20.1171875 C55.19546387 19.92350586 54.51983398 19.72982422 53.82373047 19.53027344 C48.02865529 17.84527969 42.36925674 15.77670577 36.69140625 13.73828125 C29.02218564 10.99703187 21.32715795 8.33450745 13.625 5.6875 C12.29164128 5.22858938 10.95830784 4.76960529 9.625 4.31054688 C6.41691268 3.20631392 3.20857737 2.10280801 0 1 C0 0.67 0 0.34 0 0 Z " fill="#050505" transform="translate(126,494)"/>
<path d="M0 0 C2 1 2 1 3.3671875 4.54296875 C3.8781629 6.08840311 4.38018131 7.63681702 4.875 9.1875 C5.14256104 10.00613525 5.41012207 10.82477051 5.68579102 11.66821289 C7.21613489 16.3966481 8.62534253 21.14329695 9.9375 25.9375 C11.3764971 31.09924667 13.09650685 36.06131753 15 41.0625 C19.38190287 52.5936927 23.0649608 64.35887397 26.82421875 76.10375977 C27.07717712 76.89217255 27.3301355 77.68058533 27.59075928 78.4928894 C28.06554615 79.97390139 28.53854803 81.4554874 29.00933838 82.93777466 C30.53025454 87.68551846 32.22717741 92.34029943 34 97 C34.74239362 99.12041523 35.47295055 101.24504035 36.1875 103.375 C36.53167969 104.39335937 36.87585938 105.41171875 37.23046875 106.4609375 C38 109 38 109 38 111 C39.15628906 111.1340625 40.31257812 111.268125 41.50390625 111.40625 C65.06804308 114.38211994 89.47337666 123.12834378 110.0625 134.875 C111.22217285 135.52952148 111.22217285 135.52952148 112.40527344 136.19726562 C128.18243808 145.16561622 143.78007082 155.48264703 157.05859375 167.9296875 C159.02354614 169.8207903 159.02354614 169.8207903 162 172 C166.41966652 171.76069488 169.49808545 169.68466866 173.1875 167.375 C181.33232575 162.35351887 189.61482164 157.58723104 197.91479492 152.82763672 C203.4707932 149.63449725 209.00520776 146.41344723 214.49609375 143.109375 C215.50921631 142.50125977 216.52233887 141.89314453 217.56616211 141.26660156 C219.48907747 140.10872393 221.40802978 138.94423331 223.32250977 137.77246094 C224.60146118 137.00337402 224.60146118 137.00337402 225.90625 136.21875 C226.65197266 135.76435547 227.39769531 135.30996094 228.16601562 134.84179688 C228.77123047 134.56400391 229.37644531 134.28621094 230 134 C230.66 134.33 231.32 134.66 232 135 C226.26155898 143.44091325 220.44772549 151.81236695 214.4375 160.0625 C209.98104199 166.18185461 205.68103675 172.37218733 201.55126953 178.71655273 C199.58641773 181.71179331 197.56760274 184.60902354 195.34765625 187.421875 C194.92194336 187.96344238 194.49623047 188.50500977 194.05761719 189.06298828 C192.89241468 190.52474624 191.70667893 191.97007026 190.51953125 193.4140625 C188.77557064 195.86513265 188.77557064 195.86513265 189.05078125 198.5390625 C190.14370568 201.37257027 191.50543247 203.3539012 193.375 205.75 C204.15264782 220.10088231 213.83518674 235.53401991 221 252 C221.63086212 253.39742827 222.26236291 254.7945684 222.89453125 256.19140625 C229.75973759 271.68857394 238 290.80516024 238 308 C238.69222656 308.11730469 239.38445312 308.23460937 240.09765625 308.35546875 C243.34683137 309.07702177 246.3194611 310.14819183 249.4375 311.3125 C254.28076878 313.07690585 259.08707419 314.63648845 264.0625 316 C269.66375639 317.55034775 275.00416551 319.44969902 280.37890625 321.65625 C283.48684765 322.80957453 286.57478915 323.80343432 289.74609375 324.76171875 C297.57230997 327.13802134 305.29541348 329.79326739 313.02679443 332.45962524 C317.21687583 333.90455756 321.40925518 335.34279126 325.6015625 336.78125 C326.4181131 337.0615657 327.2346637 337.34188141 328.07595825 337.63069153 C337.36333841 340.81594613 346.67543605 343.92535361 356 347 C356 347.33 356 347.66 356 348 C310.79 348 265.58 348 219 348 C218.34 339.75 217.68 331.5 217 323 C216.19352794 317.93040004 215.36288951 313.04846358 214.25 308.0625 C213.98904541 306.85086182 213.72809082 305.63922363 213.45922852 304.39086914 C211.29651299 294.66351003 208.56237691 285.30121972 205 276 C204.60167969 274.94683594 204.20335937 273.89367187 203.79296875 272.80859375 C198.91355762 260.55294908 192.79018174 248.89413641 185.73828125 237.76171875 C184.38875911 235.6176465 183.13596888 233.47864213 181.9375 231.25 C177.78757278 224.28883176 172.65775117 218.52655748 166.84765625 212.91796875 C165.0952608 211.09888595 163.71370747 209.28272245 162.3125 207.1875 C160.28838569 203.95165578 160.28838569 203.95165578 157.5625 202.5625 C154.96364732 200.97783373 154.17731267 200.0058689 152.5 197.5625 C138.8246447 178.6512404 116.12185269 165.80986357 96 155 C94.93918213 154.41629639 94.93918213 154.41629639 93.85693359 153.82080078 C82.72247039 147.71165032 71.17229267 143.56431735 59 140 C57.42943848 139.537146 57.42943848 139.537146 55.82714844 139.06494141 C37.03300655 133.65113967 19.80536009 131.91664775 0 130 C0 87.1 0 44.2 0 0 Z " fill="#050505" transform="translate(495,133)"/>
<path d="M0 0 C46.86 0 93.72 0 142 0 C141.67 0.66 141.34 1.32 141 2 C138.81547669 2.68528197 136.59960663 3.27131723 134.375 3.8125 C123.67795665 6.50839778 113.29775339 10.04732698 103 14 C97.41006576 16.10840626 91.81140639 18.0892653 86.08984375 19.8125 C78.59949065 22.10117476 71.17450801 24.57121062 63.75 27.0625 C62.44015238 27.50079516 61.13025668 27.93894665 59.8203125 28.37695312 C59.18221146 28.59041382 58.54411041 28.80387451 57.88667297 29.02380371 C56.02627607 29.6461396 54.16584835 30.26838336 52.30541992 30.890625 C50.34830209 31.54747879 48.39227263 32.20761557 46.4387207 32.875 C42.61342613 34.17636715 38.79380803 35.33411549 34.88671875 36.3671875 C25.13981896 38.7636056 25.13981896 38.7636056 17.88671875 45.06640625 C16.87856779 48.42561197 16.37844108 51.51753691 16 55 C14.40946922 62.46479006 11.99834933 69.72545638 9.65136719 76.97900391 C9.06143956 78.80937156 8.48684973 80.64466508 7.9140625 82.48046875 C3.54800734 95.6870115 -3.31673962 108.0121827 -10.6484375 119.796875 C-11.76476073 121.61654639 -12.82227035 123.47215698 -13.86328125 125.3359375 C-15.9587812 129.01881804 -18.32695001 132.44688782 -20.8125 135.875 C-21.2461084 136.47779785 -21.6797168 137.0805957 -22.12646484 137.70166016 C-25.63697898 142.55728824 -29.25982096 147.31858385 -33 152 C-31.5319084 155.06828503 -29.85043587 157.91321573 -28.0234375 160.78125 C-27.43900879 161.69986816 -26.85458008 162.61848633 -26.25244141 163.56494141 C-25.63288574 164.53351074 -25.01333008 165.50208008 -24.375 166.5 C-23.74126465 167.49306152 -23.1075293 168.48612305 -22.45458984 169.50927734 C-18.050244 176.39592919 -13.57834507 183.22765587 -9 190 C-4.62493427 196.51418238 -0.28243031 203.0495283 4 209.625 C4.39823975 210.22940918 4.79647949 210.83381836 5.20678711 211.45654297 C8 215.77001856 8 215.77001856 8 218 C3.22458723 216.33328731 -0.85253844 213.77821391 -5.125 211.125 C-5.91414795 210.6388623 -6.7032959 210.15272461 -7.51635742 209.65185547 C-13.13812853 206.17940544 -18.7289139 202.65841804 -24.3125 199.125 C-26.69247054 197.62048666 -29.07246702 196.11601465 -31.45263672 194.61181641 C-33.23661651 193.4830226 -35.0193945 192.35232823 -36.80126953 191.22021484 C-39.65451015 189.41012555 -42.51410679 187.61046345 -45.375 185.8125 C-46.26098877 185.24740723 -47.14697754 184.68231445 -48.05981445 184.10009766 C-48.89343506 183.57851074 -49.72705566 183.05692383 -50.5859375 182.51953125 C-51.3186084 182.05651611 -52.0512793 181.59350098 -52.80615234 181.11645508 C-55.25722305 179.86909849 -57.26152038 179.25980878 -60 179 C-62.11365257 180.46901953 -63.78316358 181.86429139 -65.625 183.625 C-77.1830431 194.01132235 -90.43471523 202.32301681 -103.83203125 210.12890625 C-106.41653031 211.65538597 -108.89252287 213.25487798 -111.375 214.9375 C-115.30407636 217.44726243 -119.43582971 218.292131 -124 219 C-124 219.66 -124 220.32 -124 221 C-125.06476563 221.37511719 -126.12953125 221.75023437 -127.2265625 222.13671875 C-128.26889038 222.50434326 -128.26889038 222.50434326 -129.33227539 222.87939453 C-130.87802729 223.42421817 -132.42409581 223.96814424 -133.97045898 224.51123047 C-137.55233543 225.77152714 -141.12482373 227.04646143 -144.68359375 228.37109375 C-146.35615234 228.99177734 -146.35615234 228.99177734 -148.0625 229.625 C-149.17882812 230.05167969 -150.29515625 230.47835937 -151.4453125 230.91796875 C-154.24257181 231.76944219 -156.33061522 232.18911918 -159.1796875 232.42578125 C-165.50178989 233.05429654 -165.50178989 233.05429654 -171 236 C-174.56743189 241.87308374 -175.89347082 248.73551948 -177.36499023 255.37426758 C-178.09667691 258.39975401 -179.10661175 261.21129384 -180.25219727 264.10009766 C-181.57358204 267.45726917 -182.67811562 270.88857481 -183.8125 274.3125 C-184.06749268 275.07796143 -184.32248535 275.84342285 -184.58520508 276.63208008 C-186.77579067 283.24272695 -188.87121418 289.88245533 -190.9074707 296.54223633 C-191.9805481 300.00243237 -193.12384225 303.28875782 -194.5546875 306.625 C-195.9968709 309.99269314 -196.9956351 313.27545368 -197.9375 316.8125 C-199.33929296 321.86002065 -200.95795015 326.64392893 -202.984375 331.46875 C-204.89383894 336.22772167 -206.42439352 341.12232463 -208 346 C-208.33 346 -208.66 346 -209 346 C-209 303.76 -209 261.52 -209 218 C-202.84212154 216.88038573 -196.81214266 215.80220773 -190.6328125 214.9609375 C-182.56851862 213.85306326 -174.94698062 212.37991788 -167.1640625 209.96484375 C-164.08602661 209.02623281 -161.01101937 208.27965172 -157.875 207.5625 C-151.60073118 206.01044403 -145.89754944 203.61353119 -140 201 C-138.64929187 200.43804619 -137.29767254 199.87827923 -135.9453125 199.3203125 C-110.22721871 188.53882782 -87.77643781 172.51713137 -68 153 C-66.63875 151.67935547 -66.63875 151.67935547 -65.25 150.33203125 C-61.1927811 146.35019987 -57.38521266 142.22568951 -53.69140625 137.90625 C-51.47920888 135.41305759 -49.10305889 133.1183895 -46.67578125 130.8359375 C-44.46208957 128.41068088 -42.78179011 125.75615335 -41 123 C-40.0409375 121.59427734 -40.0409375 121.59427734 -39.0625 120.16015625 C-14.32611545 83.00873021 -3.54302597 44.28782469 0 0 Z " fill="#050505" transform="translate(714,494)"/>
<path d="M0 0 C0.33 0 0.66 0 1 0 C1 42.57 1 85.14 1 129 C-9.23 129.99 -19.46 130.98 -30 132 C-37.13105513 133.47401698 -44.03115763 135.00078737 -51 137 C-51.8672168 137.24153809 -52.73443359 137.48307617 -53.62792969 137.73193359 C-63.67733912 140.54217523 -73.53731981 143.54917414 -83 148 C-83.5863623 148.27537598 -84.17272461 148.55075195 -84.77685547 148.83447266 C-104.35361457 158.11400687 -123.73094903 168.93437469 -138.80078125 184.7265625 C-140.82739127 186.82156611 -142.91090367 188.73209753 -145.125 190.625 C-149.30466026 194.20515344 -153.14430653 198.07739645 -157 202 C-157.825 202.804375 -158.65 203.60875 -159.5 204.4375 C-177.80278799 223.19785769 -191.33312096 245.93154434 -200.609375 270.3515625 C-201.5630865 272.8537157 -202.52992883 275.34661574 -203.515625 277.8359375 C-208.8068146 291.32888891 -211.93096381 304.76700506 -214.1875 319.0625 C-214.35459473 320.11421387 -214.52168945 321.16592773 -214.69384766 322.24951172 C-215.93883403 330.54899347 -216.43678093 338.55171402 -217 347 C-261.88 347 -306.76 347 -353 347 C-353 346.34 -353 345.68 -353 345 C-351.45614624 344.55974487 -351.45614624 344.55974487 -349.88110352 344.1105957 C-340.19772743 341.32199195 -330.64402837 338.26520685 -321.12869263 334.95068359 C-317.33595959 333.62968991 -313.5387359 332.32169749 -309.7421875 331.01171875 C-308.9927034 330.75272797 -308.2432193 330.49373718 -307.47102356 330.22689819 C-296.39970569 326.40498367 -285.2783582 322.7317374 -274.15600586 319.06152344 C-268.83638248 317.29925327 -263.53367007 315.4970023 -258.24609375 313.640625 C-257.12525391 313.24746094 -256.00441406 312.85429687 -254.84960938 312.44921875 C-252.53868911 311.63702353 -250.22882136 310.82182845 -247.91992188 310.00390625 C-246.81068359 309.61589844 -245.70144531 309.22789062 -244.55859375 308.828125 C-243.56142334 308.4765332 -242.56425293 308.12494141 -241.53686523 307.76269531 C-239 307 -239 307 -236 307 C-235.95174072 306.44530029 -235.90348145 305.89060059 -235.85375977 305.3190918 C-235.33320699 299.97734987 -234.4117211 294.96900308 -232.9375 289.8125 C-232.71908447 289.04623291 -232.50066895 288.27996582 -232.27563477 287.49047852 C-222.12505004 252.82002875 -205.80235132 216.69023146 -179.44921875 191.2109375 C-177.76040535 189.06146125 -177.76040535 189.06146125 -177.9453125 186.28125 C-179.39057546 181.78487634 -181.68262683 178.10880161 -184.1875 174.125 C-185.28411038 172.34080058 -186.3790929 170.55559987 -187.47265625 168.76953125 C-188.04902832 167.83189941 -188.62540039 166.89426758 -189.21923828 165.92822266 C-192.25832889 160.93084773 -195.18926773 155.87105445 -198.125 150.8125 C-199.29923865 148.7928289 -200.47371404 146.77329541 -201.6484375 144.75390625 C-202.21143555 143.78598145 -202.77443359 142.81805664 -203.35449219 141.82080078 C-206.20940068 136.92679296 -209.09014055 132.04792651 -211.98095703 127.17504883 C-213.76075602 124.16340713 -215.49901894 121.16164096 -217 118 C-213.43354335 119.63818104 -210.33918988 121.75567789 -207.125 124 C-206.56127686 124.39300293 -205.99755371 124.78600586 -205.41674805 125.19091797 C-197.98114548 130.38836216 -190.61617437 135.68683087 -183.24609375 140.9765625 C-178.25271287 144.52428538 -173.17876267 147.73807942 -167.8359375 150.73828125 C-167.23007812 151.15464844 -166.62421875 151.57101562 -166 152 C-166 152.66 -166 153.32 -166 154 C-165.34 154.20625 -164.68 154.4125 -164 154.625 C-160.52948354 156.21565338 -157.84289379 158.29232771 -154.8671875 160.66015625 C-152.93516371 162.18614683 -152.93516371 162.18614683 -150 163 C-150 162.34 -150 161.68 -150 161 C-148.20703125 159.37890625 -148.20703125 159.37890625 -145.8125 157.5625 C-145.03519531 156.96566406 -144.25789062 156.36882812 -143.45703125 155.75390625 C-141 154 -141 154 -138.54296875 152.54296875 C-135.68034531 150.80604669 -133.14860458 148.79918355 -130.5 146.75 C-123.22845063 141.36343773 -115.27127352 137.25666691 -107.25 133.125 C-106.62343506 132.8007605 -105.99687012 132.476521 -105.35131836 132.14245605 C-96.09176679 127.36752727 -86.80314549 123.13165266 -76.875 119.9375 C-73.65223909 118.89746774 -70.5135053 117.80540212 -67.3671875 116.546875 C-62.12948807 114.5661017 -56.71833336 113.46537792 -51.25 112.3125 C-50.22261719 112.08755859 -49.19523437 111.86261719 -48.13671875 111.63085938 C-43.96024691 110.73512324 -40.29127828 110 -36 110 C-35.89300781 109.00097656 -35.78601563 108.00195312 -35.67578125 106.97265625 C-35.09226689 102.90236258 -33.71927565 99.23515466 -32.1875 95.4375 C-29.70250398 89.06397982 -27.67922415 82.71195441 -25.86328125 76.11328125 C-24.27552317 70.38729396 -22.37052844 64.85401349 -20.11328125 59.35913086 C-18.08241199 54.30414571 -16.34516152 49.19140487 -14.6875 44.00390625 C-14.24410278 42.63261818 -14.24410278 42.63261818 -13.79174805 41.23362732 C-12.85789451 38.34429445 -11.92857743 35.4535324 -11 32.5625 C-9.77335072 28.7504859 -8.54443207 24.93921646 -7.3125 21.12890625 C-7.02133301 20.22830475 -6.73016602 19.32770325 -6.43017578 18.39981079 C-4.42007159 12.21420471 -2.3191089 6.07775784 0 0 Z " fill="#050505" transform="translate(481,134)"/>
<path d="M0 0 C6.27 0 12.54 0 19 0 C20.439132 3.02006528 21.87634941 6.04101728 23.3125 9.0625 C23.91868164 10.33383789 23.91868164 10.33383789 24.53710938 11.63085938 C26.79407337 16.38332827 28.94439376 21.15752143 31 26 C31.99212898 28.17028213 32.99201669 30.33703581 34 32.5 C35.77241773 36.30331305 37.48300257 40.12116229 39.125 43.98242188 C41.01920218 48.35008004 43.02130593 52.6701518 45 57 C49.88442946 67.68828094 49.88442946 67.68828094 51.67578125 71.89453125 C53.11330825 75.26572289 54.66027574 78.57578742 56.23046875 81.88671875 C57 84 57 84 57 88 C54.24763726 88.16225719 51.50482524 88.2809328 48.75 88.375 C47.97269531 88.42527344 47.19539063 88.47554687 46.39453125 88.52734375 C44.13119812 88.58537793 42.20245834 88.52980484 40 88 C35.74566181 83.56252804 35.01947498 79.05842493 33 73 C17.49 72.67 1.98 72.34 -14 72 C-14.33 73.32 -14.66 74.64 -15 76 C-16.89631114 80.05526924 -18.96285699 84.01240091 -21 88 C-26.61 88 -32.22 88 -38 88 C-36.87489548 81.24937287 -36.87489548 81.24937287 -35.1796875 77.56640625 C-34.81286865 76.76066162 -34.4460498 75.95491699 -34.06811523 75.12475586 C-33.67438721 74.27921143 -33.28065918 73.43366699 -32.875 72.5625 C-32.46902588 71.67506104 -32.06305176 70.78762207 -31.64477539 69.87329102 C-29.27754992 64.7113533 -26.86008777 59.57360988 -24.4375 54.4375 C-21.43492325 48.05095684 -18.69549441 41.57464934 -15.98461914 35.05981445 C-12.86649017 27.60092372 -9.46263287 20.30462179 -6 13 C-4.84793385 10.52366146 -3.7051755 8.04320302 -2.5625 5.5625 C-1.716875 3.726875 -0.87125 1.89125 0 0 Z " fill="#070707" transform="translate(389,445)"/>
<path d="M0 0 C5.61 0 11.22 0 17 0 C17.33 11.55 17.66 23.1 18 35 C18.66 35 19.32 35 20 35 C20.27239502 34.40541992 20.54479004 33.81083984 20.82543945 33.19824219 C21.97029488 31.05559444 23.12644698 29.57993363 24.79296875 27.828125 C25.60954956 26.96127075 25.60954956 26.96127075 26.44262695 26.0769043 C27.01843506 25.47402588 27.59424316 24.87114746 28.1875 24.25 C29.37322011 22.99166162 30.55812326 21.73255289 31.7421875 20.47265625 C32.30905273 19.8708252 32.87591797 19.26899414 33.45996094 18.64892578 C35.2842751 16.69562556 37.05975859 14.70519069 38.8125 12.6875 C39.62267578 11.79611328 39.62267578 11.79611328 40.44921875 10.88671875 C42.09828343 8.98057685 42.09828343 8.98057685 43.45703125 6.51953125 C45.47581953 3.47007355 46.81902943 1.87041069 50 0 C56.91930391 -1.12330005 64.04390016 -0.55169718 71 0 C69.74131321 3.77606037 67.875394 5.25676199 65 8 C64.04208142 8.94178868 63.08639545 9.8858529 62.1328125 10.83203125 C61.64369385 11.31591309 61.1545752 11.79979492 60.65063477 12.29833984 C56.27152027 16.64451813 52.00094016 21.00983281 48 25.7109375 C43.1444388 31.26827903 38.03676943 36.60724837 33 42 C34.45188594 45.35043397 36.2819659 47.50486196 38.88671875 50.046875 C39.66080078 50.81 40.43488281 51.573125 41.23242188 52.359375 C42.04259766 53.14828125 42.85277344 53.9371875 43.6875 54.75 C48.82989673 59.77923885 53.82916379 64.82897657 58.5144043 70.28955078 C60.27283828 72.31413393 62.13426912 74.19977166 64.0625 76.0625 C67.59883032 79.5505763 70.8583637 83.15149554 74 87 C74 87.33 74 87.66 74 88 C55.82812819 89.63010167 55.82812819 89.63010167 49.625 86.0546875 C47.12978545 83.50489013 45.05386654 80.91381878 43 78 C41.8070825 76.61160442 40.5998328 75.23532315 39.375 73.875 C38.55515625 72.9159375 38.55515625 72.9159375 37.71875 71.9375 C35.22062813 69.12143534 32.52770968 66.51641278 29.84375 63.87890625 C28.24390988 62.24856071 26.79798411 60.59579099 25.375 58.8125 C22.63148429 55.39822385 22.63148429 55.39822385 17 51 C17 63.54 17 76.08 17 89 C11.39 89 5.78 89 0 89 C0 59.63 0 30.26 0 0 Z " fill="#080808" transform="translate(484,445)"/>
<path d="M0 0 C2.93902349 -0.13481759 5.87189559 -0.23399416 8.8125 -0.3125 C10.06256836 -0.3753418 10.06256836 -0.3753418 11.33789062 -0.43945312 C13.65130427 -0.48590721 15.73069173 -0.45530066 18 0 C19.9140625 2.09765625 19.9140625 2.09765625 21 5 C21.41378906 6.02609375 21.82757812 7.0521875 22.25390625 8.109375 C22.68574219 9.31078125 23.11757813 10.5121875 23.5625 11.75 C26.20819062 18.99831413 29.04863331 26.15795197 31.9375 33.3125 C35.09318706 41.1538862 38.19133999 49.01008164 41.125 56.9375 C41.42011475 57.73003174 41.71522949 58.52256348 42.01928711 59.33911133 C44 64.75000119 44 64.75000119 44 67 C44.66 67 45.32 67 46 67 C46.11085938 66.49726563 46.22171875 65.99453125 46.3359375 65.4765625 C47.2554486 62.047327 48.44000771 58.71926923 49.625 55.375 C49.88716309 54.6337085 50.14932617 53.89241699 50.41943359 53.12866211 C53.43298439 44.68239321 56.69871904 36.33713326 60 28 C60.53753906 26.63488281 60.53753906 26.63488281 61.0859375 25.2421875 C62.04537282 22.82309844 63.01976865 20.41074566 64 18 C64.27376465 17.32453125 64.5475293 16.6490625 64.82958984 15.953125 C65.77914279 13.61331512 66.73283343 11.27522771 67.6875 8.9375 C67.99751953 8.1736499 68.30753906 7.4097998 68.62695312 6.62280273 C70.88526861 1.11473139 70.88526861 1.11473139 72 0 C73.34267413 -0.08631874 74.68974322 -0.10706473 76.03515625 -0.09765625 C76.84404297 -0.09443359 77.65292969 -0.09121094 78.48632812 -0.08789062 C79.33646484 -0.07951172 80.18660156 -0.07113281 81.0625 -0.0625 C81.91650391 -0.05798828 82.77050781 -0.05347656 83.65039062 -0.04882812 C85.76695663 -0.03700373 87.88348685 -0.01906769 90 0 C89.22786887 3.65078295 87.85371734 6.94475947 86.41796875 10.3828125 C86.16251785 10.99712128 85.90706696 11.61143005 85.64387512 12.24435425 C84.82772829 14.20568403 84.00778225 16.16539663 83.1875 18.125 C82.11739767 20.6896497 81.0488314 23.2549377 79.98046875 25.8203125 C79.72087372 26.4427887 79.46127869 27.06526489 79.19381714 27.706604 C77.37514681 32.07491707 75.60748099 36.46150786 73.8605957 40.85888672 C72.62623736 43.92990024 71.31762748 46.96372798 70 50 C67.04669791 56.85880233 64.19596458 63.73827842 61.625 70.75 C59.33837703 76.93282413 56.61670273 82.95250925 54 89 C48.06 89 42.12 89 36 89 C35.11248047 86.82664062 35.11248047 86.82664062 34.20703125 84.609375 C28.76207056 71.27946477 28.76207056 71.27946477 23.2421875 57.98046875 C21.64933009 54.15861276 20.07463998 50.32939043 18.5 46.5 C16.07464695 40.60316523 13.6388991 34.7109449 11.1796875 28.828125 C10.36793277 26.88206399 9.56090701 24.93402583 8.7578125 22.984375 C6.28984215 17.00606172 3.70394421 11.11503387 0.91796875 5.27734375 C0 3 0 3 0 0 Z " fill="#080808" transform="translate(603,445)"/>
<path d="M0 0 C3.56645665 1.63818104 6.66081012 3.75567789 9.875 6 C10.72058472 6.58950439 10.72058472 6.58950439 11.58325195 7.19091797 C19.01885452 12.38836216 26.38382563 17.68683087 33.75390625 22.9765625 C38.74728713 26.52428538 43.82123733 29.73807942 49.1640625 32.73828125 C49.76992188 33.15464844 50.37578125 33.57101562 51 34 C51 34.66 51 35.32 51 36 C51.66 36.20625 52.32 36.4125 53 36.625 C56.44627686 38.20454356 59.15229511 40.24303121 62.1328125 42.5625 C63.70665485 43.77416106 65.34735828 44.89823885 67 46 C66.01 46.99 66.01 46.99 65 48 C67.00725141 51.56782302 67.00725141 51.56782302 69.75 54.5625 C70.1625 55.036875 70.575 55.51125 71 56 C70.58532428 59.23422232 69.56832573 60.77208196 67.1640625 62.91015625 C66.59429687 63.42513672 66.02453125 63.94011719 65.4375 64.47070312 C64.839375 64.99599609 64.24125 65.52128906 63.625 66.0625 C62.4501661 67.11548977 61.27567583 68.16886309 60.1015625 69.22265625 C59.57900879 69.68422119 59.05645508 70.14578613 58.51806641 70.62133789 C56.95071879 72.00768603 56.95071879 72.00768603 55.43115234 73.67358398 C54 75 54 75 52 75 C48 68.25 48 68.25 48 66 C46.87411986 66.95729916 45.7493285 67.91587895 44.625 68.875 C43.99851562 69.40867187 43.37203125 69.94234375 42.7265625 70.4921875 C41.44163349 71.61432007 40.20628025 72.79371975 39 74 C39 73.01 39 72.02 39 71 C38.60323033 65.05727211 35.90189259 61.03843327 32.8125 56.125 C31.71588962 54.34080058 30.6209071 52.55559987 29.52734375 50.76953125 C28.66278564 49.3630835 28.66278564 49.3630835 27.78076172 47.92822266 C24.74167111 42.93084773 21.81073227 37.87105445 18.875 32.8125 C17.70076135 30.7928289 16.52628596 28.77329541 15.3515625 26.75390625 C14.78856445 25.78598145 14.22556641 24.81805664 13.64550781 23.82080078 C10.79059932 18.92679296 7.90985945 14.04792651 5.01904297 9.17504883 C3.23924398 6.16340713 1.50098106 3.16164096 0 0 Z " fill="#0E0E0E" transform="translate(264,252)"/>
<path d="M0 0 C0.99 0.495 0.99 0.495 2 1 C-3.73844516 9.44091933 -9.55243034 17.81224863 -15.5625 26.0625 C-20.03513373 32.20627832 -24.34646743 38.42644663 -28.52124023 44.77587891 C-32.17349359 50.3151929 -36.03809566 55.67688271 -40 61 C-41.5 59.6875 -41.5 59.6875 -43 58 C-43 57.01 -43 56.02 -43 55 C-46.90354222 56.30118074 -47.45338056 57.90383582 -49.5625 61.375 C-50.16191406 62.35210937 -50.76132812 63.32921875 -51.37890625 64.3359375 C-51.91386719 65.21507812 -52.44882812 66.09421875 -53 67 C-53.66 67.99 -54.32 68.98 -55 70 C-57 70 -57 70 -58.4453125 68.56640625 C-59.27675781 67.57447266 -59.27675781 67.57447266 -60.125 66.5625 C-60.73730469 65.84191406 -61.34960938 65.12132812 -61.98046875 64.37890625 C-62.64691406 63.59386719 -63.31335938 62.80882812 -64 62 C-65.47486024 60.3295213 -66.95393475 58.66275253 -68.4375 57 C-69.11683594 56.236875 -69.79617188 55.47375 -70.49609375 54.6875 C-70.99238281 54.130625 -71.48867188 53.57375 -72 53 C-71.67 52.01 -71.34 51.02 -71 50 C-70.34 50 -69.68 50 -69 50 C-69.495 48.515 -69.495 48.515 -70 47 C-68.35 46.01 -66.7 45.02 -65 44 C-65.34786708 42.02463255 -65.34786708 42.02463255 -66 40 C-66.66 39.67 -67.32 39.34 -68 39 C-67.47535156 38.75507813 -66.95070313 38.51015625 -66.41015625 38.2578125 C-58.52930184 34.45507077 -51.0839528 29.98613829 -43.56933594 25.52001953 C-37.70366139 22.04988558 -31.80737355 18.63163591 -25.91503906 15.20703125 C-21.17741479 12.45037451 -16.45044425 9.68034854 -11.7578125 6.84765625 C-10.96890625 6.37392578 -10.18 5.90019531 -9.3671875 5.41210938 C-7.90738251 4.53342885 -6.45141987 3.64832251 -5 2.75585938 C-3.36828464 1.77649985 -1.68818122 0.87845562 0 0 Z " fill="#0D0D0D" transform="translate(725,267)"/>
<path d="M0 0 C3.01015294 1.3510265 5.11967466 2.86335687 7.453125 5.1875 C8.38125 6.11175781 8.38125 6.11175781 9.328125 7.0546875 C9.96234375 7.69664062 10.5965625 8.33859375 11.25 9 C11.8996875 9.64195312 12.549375 10.28390625 13.21875 10.9453125 C13.83234375 11.56148437 14.4459375 12.17765625 15.078125 12.8125 C15.91972168 13.65748047 15.91972168 13.65748047 16.77832031 14.51953125 C18 16 18 16 18 18 C16.48706055 19.18920898 16.48706055 19.18920898 14.38671875 20.49609375 C13.63326172 20.97240234 12.87980469 21.44871094 12.10351562 21.93945312 C11.30623047 22.43380859 10.50894531 22.92816406 9.6875 23.4375 C8.12671815 24.41186833 6.56804071 25.38961752 5.01171875 26.37109375 C3.96697388 27.0196936 3.96697388 27.0196936 2.90112305 27.68139648 C1.04019137 28.97212359 -0.45616197 30.34935746 -2 32 C-0.68 32.33 0.64 32.66 2 33 C1.54533838 37.550919 1.54533838 37.550919 -0.84790039 39.52172852 C-1.65219482 39.94897217 -2.45648926 40.37621582 -3.28515625 40.81640625 C-7.29565323 43.04731204 -11.19892422 45.35490148 -15.05859375 47.83984375 C-16.10466797 48.51080078 -17.15074219 49.18175781 -18.22851562 49.87304688 C-19.28748047 50.55431641 -20.34644531 51.23558594 -21.4375 51.9375 C-23.56111041 53.30091756 -25.68480768 54.66419983 -27.80859375 56.02734375 C-28.83654053 56.68774658 -29.8644873 57.34814941 -30.92358398 58.02856445 C-34.83694013 60.53632978 -38.76091192 63.02717496 -42.6875 65.51416016 C-44.67158392 66.78898435 -46.62077399 68.09964611 -48.5625 69.4375 C-51 71 -51 71 -53 71 C-51.5002787 65.15108693 -48.39530219 60.88169004 -45 56 C-40.59993791 49.51321318 -36.32406793 42.96934484 -32.1875 36.3125 C-28.51812649 30.41224492 -24.81687573 24.53410912 -21.0625 18.6875 C-20.60190186 17.96409424 -20.14130371 17.24068848 -19.66674805 16.49536133 C-19.23144775 15.82013428 -18.79614746 15.14490723 -18.34765625 14.44921875 C-17.96617432 13.85455811 -17.58469238 13.25989746 -17.19165039 12.6472168 C-15.93570734 10.91112834 -14.55205224 9.47309162 -13 8 C-11 11 -11 11 -11 15 C-10.34 15.33 -9.68 15.66 -9 16 C-8.61714844 14.94232422 -8.61714844 14.94232422 -8.2265625 13.86328125 C-6.88449478 10.7303652 -5.23270133 8.04285575 -3.375 5.1875 C-2.74335938 4.21167969 -2.11171875 3.23585938 -1.4609375 2.23046875 C-0.73777344 1.12638672 -0.73777344 1.12638672 0 0 Z " fill="#0E0E0E" transform="translate(310,642)"/>
<path d="M0 0 C1.54814358 2.0367096 2.86983132 4.00760038 4.1875 6.1875 C4.58259766 6.82099365 4.97769531 7.4544873 5.38476562 8.10717773 C6.60178594 10.0643898 7.80319511 12.03037266 9 14 C10.33257536 16.18796182 11.66586844 18.37548674 13 20.5625 C13.64324219 21.61695313 14.28648437 22.67140625 14.94921875 23.7578125 C17.81831121 28.29371105 20.90048664 32.6606813 24.01953125 37.02734375 C25.95260888 39.92886658 27.5121791 42.85070087 29 46 C23.85247172 44.23184496 19.37949874 41.36915292 14.75 38.5625 C13.87335693 38.03406494 12.99671387 37.50562988 12.09350586 36.96118164 C4.80325267 32.54179031 -2.36787527 27.95247065 -9.49609375 23.27734375 C-12.29055559 21.44710996 -15.11946202 19.6928017 -18 18 C-17.41530554 14.62484427 -16.34598973 12.96200171 -13.9453125 10.546875 C-13.33042969 9.928125 -12.71554687 9.309375 -12.08203125 8.671875 C-11.43621094 8.03765625 -10.79039062 7.4034375 -10.125 6.75 C-9.48691406 6.1003125 -8.84882812 5.450625 -8.19140625 4.78125 C-7.57394531 4.16765625 -6.95648437 3.5540625 -6.3203125 2.921875 C-5.75586426 2.36081055 -5.19141602 1.79974609 -4.60986328 1.22167969 C-3 0 -3 0 0 0 Z " fill="#F4F4F4" transform="translate(669,642)"/>
<path d="M0 0 C3.01015294 1.3510265 5.11967466 2.86335687 7.453125 5.1875 C8.38125 6.11175781 8.38125 6.11175781 9.328125 7.0546875 C9.96234375 7.69664062 10.5965625 8.33859375 11.25 9 C11.8996875 9.64195312 12.549375 10.28390625 13.21875 10.9453125 C13.83234375 11.56148437 14.4459375 12.17765625 15.078125 12.8125 C15.91972168 13.65748047 15.91972168 13.65748047 16.77832031 14.51953125 C18 16 18 16 18 18 C15.63775435 19.69970231 13.27464691 21.26814652 10.8125 22.8125 C10.06307129 23.29025879 9.31364258 23.76801758 8.54150391 24.26025391 C1.48044984 28.74394387 -5.63987447 33.13571794 -12.77807617 37.49536133 C-16.61173634 39.84680543 -20.3665826 42.21929378 -23.9921875 44.8828125 C-27 47 -27 47 -29 47 C-27.59214181 43.1379203 -25.7813857 39.87796774 -23.55078125 36.4296875 C-22.86693359 35.3675 -22.18308594 34.3053125 -21.47851562 33.2109375 C-20.76373047 32.11007812 -20.04894531 31.00921875 -19.3125 29.875 C-17.91264276 27.70580509 -16.51290231 25.53653481 -15.11328125 23.3671875 C-14.4277417 22.30765869 -13.74220215 21.24812988 -13.03588867 20.15649414 C-10.4974237 16.22079278 -7.98443946 12.26927237 -5.47705078 8.3137207 C-3.69035631 5.51495979 -1.8589139 2.75119257 0 0 Z " fill="#F2F2F2" transform="translate(310,642)"/>
<path d="M0 0 C0.66 0.33 1.32 0.66 2 1 C-8.77852322 16.70974632 -8.77852322 16.70974632 -14.24609375 24.49609375 C-16.40236831 27.57442781 -18.54656408 30.66098527 -20.6875 33.75 C-21.41324219 34.79671875 -22.13898437 35.8434375 -22.88671875 36.921875 C-23.97570957 38.50805756 -25.06153452 40.09750558 -26.08837891 41.72460938 C-27.01155743 43.18086695 -28.00080285 44.59481327 -29 46 C-31 46 -31 46 -32.4453125 44.56640625 C-32.99960937 43.90511719 -33.55390625 43.24382812 -34.125 42.5625 C-34.73730469 41.84191406 -35.34960938 41.12132812 -35.98046875 40.37890625 C-36.64691406 39.59386719 -37.31335938 38.80882812 -38 38 C-39.47486024 36.3295213 -40.95393475 34.66275253 -42.4375 33 C-43.11683594 32.236875 -43.79617188 31.47375 -44.49609375 30.6875 C-44.99238281 30.130625 -45.48867188 29.57375 -46 29 C-44.78452416 25.35357247 -43.97169177 25.13003517 -40.6953125 23.328125 C-39.8069873 22.83199707 -38.91866211 22.33586914 -38.00341797 21.82470703 C-37.05354004 21.30505371 -36.10366211 20.78540039 -35.125 20.25 C-33.19155839 19.17132946 -31.25925381 18.09061817 -29.328125 17.0078125 C-28.40064453 16.48864258 -27.47316406 15.96947266 -26.51757812 15.43457031 C-22.72495856 13.27345389 -19.08839239 10.91710255 -15.43359375 8.53125 C-10.45947748 5.40146898 -5.25553645 2.62776823 0 0 Z " fill="#F3F3F3" transform="translate(699,291)"/>
<path d="M0 0 C2.33832256 2.18892136 4.06002816 4.44613921 5.78515625 7.140625 C6.5735791 8.36434814 6.5735791 8.36434814 7.37792969 9.61279297 C7.93383789 10.48307129 8.48974609 11.35334961 9.0625 12.25 C10.23494318 14.07078529 11.40812684 15.89109396 12.58203125 17.7109375 C13.16162598 18.61038086 13.7412207 19.50982422 14.33837891 20.43652344 C16.608567 23.93887062 18.92382075 27.40969557 21.25 30.875 C24.56842645 35.83676041 27.86889758 40.80956705 31.125 45.8125 C31.5159082 46.40595215 31.90681641 46.9994043 32.30957031 47.61083984 C35 51.76888791 35 51.76888791 35 54 C30.22460921 52.33329498 26.14741504 49.77828238 21.875 47.125 C21.09310303 46.64321289 20.31120605 46.16142578 19.50561523 45.66503906 C10.62673264 40.17964685 1.80794988 34.59834279 -7 29 C-7.62712891 28.60167969 -8.25425781 28.20335937 -8.90039062 27.79296875 C-11.93549056 25.86494792 -14.9689688 23.93441093 -18 22 C-16.68 21.34 -15.36 20.68 -14 20 C-14 19.34 -14 18.68 -14 18 C-7.69900415 18.3891548 -3.76210652 20.6040243 1.4375 24.0625 C2.16904297 24.53494141 2.90058594 25.00738281 3.65429688 25.49414062 C5.44335834 26.65176863 7.22270714 27.82438372 9 29 C6.09510282 20.28530847 -0.69912009 12.42767672 -6 5 C-3.92446352 4.4465236 -2.15634036 4 0 4 C0 2.68 0 1.36 0 0 Z " fill="#101010" transform="translate(687,658)"/>
<path d="M0 0 C2.8974797 1.37820348 5.51466368 2.94457236 8.16015625 4.7578125 C9.34279053 5.56690063 9.34279053 5.56690063 10.54931641 6.39233398 C11.37866699 6.96411377 12.20801758 7.53589355 13.0625 8.125 C13.91505371 8.71031494 14.76760742 9.29562988 15.64599609 9.89868164 C21.04054821 13.61416531 26.36812447 17.40092787 31.63671875 21.29296875 C34.69511315 23.50209 37.84363716 25.55483483 41.02734375 27.578125 C43.2607256 29.18792895 45.10118056 31.01197428 47 33 C44.59051186 35.29931452 42.17121799 37.58804548 39.75 39.875 C38.72712891 40.85146484 38.72712891 40.85146484 37.68359375 41.84765625 C37.01972656 42.47285156 36.35585938 43.09804688 35.671875 43.7421875 C35.0644043 44.3182373 34.45693359 44.89428711 33.83105469 45.48779297 C31.97612358 47.01971874 30.18742855 48.01607943 28 49 C27.67427002 48.41847168 27.34854004 47.83694336 27.01293945 47.23779297 C20.19310722 35.07795953 13.28376827 22.9821252 6.13989258 11.00927734 C5.62579834 10.14641113 5.1117041 9.28354492 4.58203125 8.39453125 C4.13061768 7.64018799 3.6792041 6.88584473 3.21411133 6.10864258 C2.06081997 4.10563082 1.01016918 2.07827238 0 0 Z " fill="#F5F5F5" transform="translate(288,278)"/>
<path d="M0 0 C3.05783254 1.52891627 3.71356292 4.43779406 5.00390625 7.44921875 C5.28725327 8.09945511 5.57060028 8.74969147 5.86253357 9.41963196 C6.46165731 10.79942427 7.05743746 12.18067244 7.65014648 13.56323242 C8.55314556 15.6657197 9.47005796 17.76171816 10.38867188 19.85742188 C10.96960495 21.20015126 11.54970943 22.5432395 12.12890625 23.88671875 C12.40182999 24.50882736 12.67475372 25.13093597 12.95594788 25.77189636 C14.6095406 29.66211018 15.28427299 32.70563792 16 37 C5.77 37 -4.46 37 -15 37 C-14.0831331 32.41566551 -12.6587579 28.64431187 -10.75 24.4375 C-10.11498433 23.01472475 -9.48087802 21.5915433 -8.84765625 20.16796875 C-8.5345752 19.46591309 -8.22149414 18.76385742 -7.89892578 18.04052734 C-6.21023141 14.20725532 -4.62928127 10.3295747 -3.04296875 6.453125 C-2.10725865 4.25227876 -1.09686215 2.12423982 0 0 Z " fill="#F3F3F3" transform="translate(398,464)"/>
<path d="M0 0 C6.16053189 3.14853781 11.88949282 6.52076825 17.47265625 10.61328125 C19.37485186 12.0692565 19.37485186 12.0692565 21.43359375 13.03125 C21.43359375 13.69125 21.43359375 14.35125 21.43359375 15.03125 C22.13484375 15.24910156 22.83609375 15.46695312 23.55859375 15.69140625 C27.1305266 17.35604343 29.64507792 19.75454741 32.43359375 22.46875 C35.89592317 25.81244631 39.27678598 28.58033486 43.43359375 31.03125 C45.234375 32.78515625 45.234375 32.78515625 46.74609375 34.59375 C47.25785156 35.19316406 47.76960937 35.79257812 48.296875 36.41015625 C49.43359375 38.03125 49.43359375 38.03125 49.43359375 40.03125 C46.43737408 38.70161937 44.55432503 37.29569792 42.3671875 34.87109375 C37.93144629 30.31269445 32.83183218 27.01250153 27.49609375 23.59375 C26.48281006 22.93922852 25.46952637 22.28470703 24.42553711 21.61035156 C13.88210241 14.89338533 3.19147157 9.31622852 -8.56640625 5.03125 C-4.86785609 -1.83748601 -4.86785609 -1.83748601 0 0 Z " fill="#101010" transform="translate(562.56640625,316.96875)"/>
<path d="M0 0 C0.99 0.33 1.98 0.66 3 1 C3 1.66 3 2.32 3 3 C3.66 3.20625 4.32 3.4125 5 3.625 C8.44627686 5.20454356 11.15229511 7.24303121 14.1328125 9.5625 C15.70665485 10.77416106 17.34735828 11.89823885 19 13 C18.34 13.66 17.68 14.32 17 15 C18.73559438 18.057952 20.38472619 20.63379989 23 23 C18.55392687 23 17.80619194 22.48015852 14.375 19.9375 C13.50746094 19.30328125 12.63992188 18.6690625 11.74609375 18.015625 C10.83988281 17.35046875 9.93367188 16.6853125 9 16 C6.31552566 14.15373154 3.62559733 12.31573484 0.93359375 10.48046875 C-1 9 -1 9 -2 7 C-1.34 6.34 -0.68 5.68 0 5 C0.33 4.01 0.66 3.02 1 2 C0.67 1.34 0.34 0.68 0 0 Z " fill="#181818" transform="translate(312,285)"/>
<path d="M0 0 C0.58716797 0.20141602 1.17433594 0.40283203 1.77929688 0.61035156 C1.11929688 1.27035156 0.45929687 1.93035156 -0.22070312 2.61035156 C0.76929688 4.09535156 0.76929688 4.09535156 1.77929688 5.61035156 C1.40429688 7.79785156 1.40429688 7.79785156 0.77929688 9.61035156 C0.11929688 9.67222656 -0.54070313 9.73410156 -1.22070312 9.79785156 C-4.82286646 10.77343747 -7.37893209 12.47814282 -10.45117188 14.55175781 C-12.22070312 15.61035156 -12.22070312 15.61035156 -14.22070312 15.61035156 C-14.22070312 14.29035156 -14.22070312 12.97035156 -14.22070312 11.61035156 C-16.53070312 11.61035156 -18.84070313 11.61035156 -21.22070312 11.61035156 C-17.56336108 8.73672567 -13.67618688 6.29508622 -9.72070312 3.86035156 C-9.05683594 3.43625 -8.39296875 3.01214844 -7.70898438 2.57519531 C-2.72592578 -0.47829568 -2.72592578 -0.47829568 0 0 Z " fill="#131313" transform="translate(701.220703125,282.3896484375)"/>
<path d="M0 0 C0.66 0.33 1.32 0.66 2 1 C-6.48566534 9.20374955 -15.22062834 16.39263996 -25 23 C-26.08410156 23.7528125 -27.16820312 24.505625 -28.28515625 25.28125 C-31 27 -31 27 -33 27 C-33 26.01 -33 25.02 -33 24 C-34.65 24.66 -36.3 25.32 -38 26 C-38.33 25.34 -38.66 24.68 -39 24 C-38.030625 23.53851562 -37.06125 23.07703125 -36.0625 22.6015625 C-28.64703965 19.01563441 -21.43557163 15.22636505 -14.4375 10.875 C-13.79619141 10.48006348 -13.15488281 10.08512695 -12.49414062 9.67822266 C-7.9823297 6.82129129 -3.96956216 3.56733965 0 0 Z " fill="#1D1D1D" transform="translate(602,617)"/>
<path d="M0 0 C37.62 0 75.24 0 114 0 C114 0.33 114 0.66 114 1 C79.35 1 44.7 1 9 1 C9.33 1.99 9.66 2.98 10 4 C6.7 3.01 3.4 2.02 0 1 C0 0.67 0 0.34 0 0 Z " fill="#080808" transform="translate(126,494)"/>
<path d="M0 0 C0.66 0 1.32 0 2 0 C2 1.32 2 2.64 2 4 C-0.44921875 5.88671875 -0.44921875 5.88671875 -3.6875 7.6875 C-4.74324219 8.28949219 -5.79898438 8.89148438 -6.88671875 9.51171875 C-9.67907409 10.84658372 -11.95493458 11.5762896 -15 12 C-15 10.02 -15 8.04 -15 6 C-15.66 5.67 -16.32 5.34 -17 5 C-6.93329432 0.54359274 -6.93329432 0.54359274 -1 1 C-0.67 0.67 -0.34 0.34 0 0 Z " fill="#111111" transform="translate(567,641)"/>
<path d="M0 0 C0.33 0.66 0.66 1.32 1 2 C3.32156597 2.40729228 5.6568787 2.74438677 8 3 C8 3.99 8 4.98 8 6 C5.73469504 7.71228665 3.53492555 9.2090036 1.125 10.6875 C0.47402344 11.10322266 -0.17695313 11.51894531 -0.84765625 11.94726562 C-5.70997537 15 -5.70997537 15 -8 15 C-6.51194289 9.19657726 -3.40902445 4.82409121 0 0 Z " fill="#141414" transform="translate(265,698)"/>
<path d="M0 0 C4.93871762 3.50199977 9.33105604 7.14244272 13.45703125 11.58203125 C15.05672771 13.24618132 15.05672771 13.24618132 18 14 C19.60546875 15.55859375 19.60546875 15.55859375 21.1875 17.4375 C21.71730469 18.05496094 22.24710938 18.67242187 22.79296875 19.30859375 C24 21 24 21 24 23 C21.07862611 21.69883133 19.27980064 20.39778806 17.1875 18 C11.67759557 12.25950486 4.66342088 8.26218813 -2 4 C-1.34 3.67 -0.68 3.34 0 3 C0 2.01 0 1.02 0 0 Z " fill="#272727" transform="translate(588,334)"/>
<path d="M0 0 C0.66 0.33 1.32 0.66 2 1 C0.33333333 2.66666667 -1.33333333 4.33333333 -3 6 C-2.34 6.66 -1.68 7.32 -1 8 C-2.25460729 11.76382187 -3.52618612 12.25041838 -6.875 14.25 C-7.75929688 14.79140625 -8.64359375 15.3328125 -9.5546875 15.890625 C-12 17 -12 17 -15 16 C-13.35 14.35 -11.7 12.7 -10 11 C-10.33 10.01 -10.66 9.02 -11 8 C-11.66 7.67 -12.32 7.34 -13 7 C-12.31292969 6.66226562 -11.62585938 6.32453125 -10.91796875 5.9765625 C-10.01691406 5.53054688 -9.11585938 5.08453125 -8.1875 4.625 C-7.29417969 4.18414062 -6.40085937 3.74328125 -5.48046875 3.2890625 C-2.85443619 1.98133095 -2.85443619 1.98133095 0 0 Z " fill="#101010" transform="translate(670,299)"/>
<path d="M0 0 C2.07697062 1.92458419 2.98764657 2.96680015 4 5.6875 C4 10.28632098 2.11303547 13.63039567 -1 17 C-1.99 17 -2.98 17 -4 17 C-5.07077375 13.78767875 -5 11.36062193 -5 8 C-3.90625 5.95703125 -3.90625 5.95703125 -2.5 3.8125 C-2.0359375 3.09707031 -1.571875 2.38164063 -1.09375 1.64453125 C-0.7328125 1.10183594 -0.371875 0.55914063 0 0 Z " fill="#121212" transform="translate(296,650)"/>
<path d="M0 0 C0 3.81307353 -1.03542447 5.74828878 -3 9 C-4.64142963 10.0409066 -6.30712215 11.04504326 -8 12 C-9.32793606 14.06700655 -9.32793606 14.06700655 -10 16 C-10.66 16 -11.32 16 -12 16 C-12.33 16.66 -12.66 17.32 -13 18 C-17.53488372 22.76744186 -17.53488372 22.76744186 -20 24 C-20.33 24.66 -20.66 25.32 -21 26 C-22.64363134 26.72159424 -24.31050386 27.39351421 -26 28 C-21.96338394 23.09060209 -17.6448063 18.60306891 -13.12011719 14.13964844 C-9.6945387 10.74224468 -6.46414876 7.23289866 -3.33984375 3.55859375 C-2.27935864 2.32496821 -1.15031749 1.15031749 0 0 Z " fill="#0F0F0F" transform="translate(664,628)"/>
<path d="M0 0 C1 2 1 2 1 6 C2.32 6.66 3.64 7.32 5 8 C3.02 10.64 1.04 13.28 -1 16 C-1.99 15.01 -2.98 14.02 -4 13 C-4 12.01 -4 11.02 -4 10 C-4.66 9.67 -5.32 9.34 -6 9 C-4.02 6.03 -2.04 3.06 0 0 Z " fill="#0E0E0E" transform="translate(686,312)"/>
<path d="M0 0 C0.66 0 1.32 0 2 0 C2.86329773 2.45546966 3.71589436 4.91378043 4.5625 7.375 C4.80935547 8.07367188 5.05621094 8.77234375 5.31054688 9.4921875 C5.93091049 11.30959075 6.47106524 13.15391397 7 15 C6.67 15.66 6.34 16.32 6 17 C5.195625 16.835 4.39125 16.67 3.5625 16.5 C1.2715557 15.96808161 1.2715557 15.96808161 0 16 C0 10.72 0 5.44 0 0 Z " fill="#1D1D1D" transform="translate(496,137)"/>
<path d="M0 0 C1.25876953 0.30357422 1.25876953 0.30357422 2.54296875 0.61328125 C3.42339844 0.82082031 4.30382812 1.02835937 5.2109375 1.2421875 C8.09552118 2.02482648 10.92546884 2.89236023 13.73046875 3.92578125 C13.73046875 4.25578125 13.73046875 4.58578125 13.73046875 4.92578125 C6.14046875 4.92578125 -1.44953125 4.92578125 -9.26953125 4.92578125 C-7.94953125 4.26578125 -6.62953125 3.60578125 -5.26953125 2.92578125 C-4.79128906 2.37535156 -4.31304688 1.82492187 -3.8203125 1.2578125 C-2.26953125 -0.07421875 -2.26953125 -0.07421875 0 0 Z " fill="#0A0A0A" transform="translate(837.26953125,476.07421875)"/>
<path d="M0 0 C0.33 0.66 0.66 1.32 1 2 C16.51 2 32.02 2 48 2 C48 2.33 48 2.66 48 3 C32.49 3 16.98 3 1 3 C0.67 3.99 0.34 4.98 0 6 C-1.125 2.25 -1.125 2.25 0 0 Z " fill="#3B3B3B" transform="translate(374,514)"/>
<path d="M0 0 C2.16874252 0.50603992 3.99967627 0.99983813 6 2 C6 2.66 6 3.32 6 4 C7.32 4.66 8.64 5.32 10 6 C10 6.99 10 7.98 10 9 C5.24518354 8.42365861 2.02951788 6.44931479 -2 4 C-1.34 2.68 -0.68 1.36 0 0 Z " fill="#131313" transform="translate(578,328)"/>
<path d="M0 0 C0.33 0 0.66 0 1 0 C1.33 9.9 1.66 19.8 2 30 C2.66 29.67 3.32 29.34 4 29 C4.33 29.99 4.66 30.98 5 32 C3.68799596 33.35432675 2.35368596 34.68733482 1 36 C0.67 36 0.34 36 0 36 C0 24.12 0 12.24 0 0 Z " fill="#EAEAEA" transform="translate(501,445)"/>
<path d="M0 0 C1.98 0.66 3.96 1.32 6 2 C5.34 3.32 4.68 4.64 4 6 C5.2375 7.1446875 5.2375 7.1446875 6.5 8.3125 C9 11 9 11 9 14 C7.65686601 13.35330586 6.32608822 12.68096422 5 12 C4.113125 11.62875 3.22625 11.2575 2.3125 10.875 C-0.34286822 8.72199874 -0.42799097 8.12597475 -0.875 4.875 C-0.91625 3.59625 -0.9575 2.3175 -1 1 C-0.67 0.67 -0.34 0.34 0 0 Z " fill="#0A0A0A" transform="translate(325,295)"/>
<path d="M0 0 C0.66 0.33 1.32 0.66 2 1 C-0.07818044 2.9640607 -2.16214565 4.92126906 -4.25 6.875 C-4.83652344 7.43058594 -5.42304687 7.98617187 -6.02734375 8.55859375 C-6.88779297 9.36103516 -6.88779297 9.36103516 -7.765625 10.1796875 C-8.28930664 10.67194824 -8.81298828 11.16420898 -9.35253906 11.67138672 C-11.13389793 13.10798348 -12.92462201 14.04911389 -15 15 C-15.99 14.34 -16.98 13.68 -18 13 C-17.28714844 12.56429687 -16.57429687 12.12859375 -15.83984375 11.6796875 C-10.14263272 8.13714175 -4.95953879 4.5186909 0 0 Z " fill="#4E4E4E" transform="translate(602,617)"/>
<path d="M0 0 C0.66 0.33 1.32 0.66 2 1 C0.3125 4 0.3125 4 -2 7 C-4.5 7.25 -4.5 7.25 -7 7 C-9.6309464 8.05237856 -10.9784661 8.9784661 -13 11 C-13.66 10.34 -14.32 9.68 -15 9 C-12.54732365 7.46931512 -10.08866106 5.95031377 -7.625 4.4375 C-6.92632813 3.99986328 -6.22765625 3.56222656 -5.5078125 3.11132812 C-3.70814097 2.01249022 -1.85677657 0.99932133 0 0 Z " fill="#242424" transform="translate(725,267)"/>
<path d="M0 0 C0.33 1.32 0.66 2.64 1 4 C-0.32 4 -1.64 4 -3 4 C-3 4.66 -3 5.32 -3 6 C-3.721875 6.226875 -4.44375 6.45375 -5.1875 6.6875 C-8.53209313 8.24831013 -10.51603959 10.3031287 -13 13 C-13.66 12.67 -14.32 12.34 -15 12 C-13.07141188 9.99068029 -11.133102 7.99272731 -9.1875 6 C-8.64029297 5.42765625 -8.09308594 4.8553125 -7.52929688 4.265625 C-3.33984375 0 -3.33984375 0 0 0 Z " fill="#E3E3E3" transform="translate(669,642)"/>
<path d="M0 0 C1.5625 1.1875 1.5625 1.1875 3 3 C2.6875 5.6875 2.6875 5.6875 2 8 C0.35 8 -1.3 8 -3 8 C-4.125 3.25 -4.125 3.25 -3 1 C-2.01 0.67 -1.02 0.34 0 0 Z " fill="#090909" transform="translate(690,311)"/>
<path d="M0 0 C0.66 0.66 1.32 1.32 2 2 C2.66 1.34 3.32 0.68 4 0 C5.28497537 3.85492611 4.4052209 5.40346836 3.0625 9.1875 C2.68222656 10.27417969 2.30195313 11.36085938 1.91015625 12.48046875 C1.60980469 13.31191406 1.30945313 14.14335938 1 15 C0.67 15 0.34 15 0 15 C0 10.05 0 5.1 0 0 Z " fill="#111111" transform="translate(505,825)"/>
<path d="M0 0 C0.33 0.99 0.66 1.98 1 3 C-1.64 4.65 -4.28 6.3 -7 8 C-7 7.34 -7 6.68 -7 6 C-8.98 6.33 -10.96 6.66 -13 7 C-11.74449542 4.48899084 -10.68080384 4.15408425 -8.1875 2.9375 C-7.15689453 2.42509766 -7.15689453 2.42509766 -6.10546875 1.90234375 C-4.08082681 1.03464006 -2.14842919 0.46830928 0 0 Z " fill="#2D2D2D" transform="translate(586,630)"/>
<path d="M0 0 C0.99 0.33 1.98 0.66 3 1 C1.22054913 5.04420651 -1.39529673 8.46078487 -4 12 C-4.81708536 9.65734387 -5.18224726 8.46329171 -4.2578125 6.11328125 C-1.11111111 1.11111111 -1.11111111 1.11111111 0 0 Z " fill="#161616" transform="translate(311,344)"/>
<path d="M0 0 C0.66 0.99 1.32 1.98 2 3 C0.3790787 4.17232685 -1.24686833 5.3377077 -2.875 6.5 C-3.77992188 7.1496875 -4.68484375 7.799375 -5.6171875 8.46875 C-8 10 -8 10 -10 10 C-9.00344362 6.31274141 -8.3417689 5.20648538 -5 3.1875 C-2 2 -2 2 0 2 C0 1.34 0 0.68 0 0 Z " fill="#E2E2E2" transform="translate(291,679)"/>
<path d="M0 0 C-1.37326602 4.11979807 -4.08595092 7.04297546 -8 9 C-8.33 9.66 -8.66 10.32 -9 11 C-10.64363134 11.72159424 -12.31050386 12.39351421 -14 13 C-3.15384615 0 -3.15384615 0 0 0 Z " fill="#171717" transform="translate(652,643)"/>
<path d="M0 0 C3.56521654 1.78260827 6.71455357 3.75992289 10 6 C9.67 6.66 9.34 7.32 9 8 C8.34 8 7.68 8 7 8 C6.67 8.99 6.34 9.98 6 11 C4.02 7.37 2.04 3.74 0 0 Z " fill="#2C2C2C" transform="translate(264,252)"/>
<path d="M0 0 C2.79872437 2.52788007 4.45773019 4.20411134 5 8 C1.40992874 6.66654496 -1.79570907 5.1056769 -5 3 C-5 2.67 -5 2.34 -5 2 C-3.35 2 -1.7 2 0 2 C0 1.34 0 0.68 0 0 Z " fill="#2D2D2D" transform="translate(717,704)"/>
<path d="M0 0 C0.6875 2.3125 0.6875 2.3125 1 5 C-0.4375 6.8125 -0.4375 6.8125 -2 8 C-2.33 7.01 -2.66 6.02 -3 5 C-3.99 4.67 -4.98 4.34 -6 4 C-5.67 3.01 -5.34 2.02 -5 1 C-2 0 -2 0 0 0 Z " fill="#060606" transform="translate(703,681)"/>
<path d="M0 0 C1.875 0.1875 1.875 0.1875 4 1 C5.25 3.5625 5.25 3.5625 6 6 C4.1875 6.6875 4.1875 6.6875 2 7 C0.25 5.5625 0.25 5.5625 -1 4 C-0.34 4 0.32 4 1 4 C0.67 2.68 0.34 1.36 0 0 Z " fill="#161616" transform="translate(690,345)"/>
<path d="M0 0 C2.74277578 3.19990508 4.6302836 6.00499382 6 10 C5.34 10.66 4.68 11.32 4 12 C4 11.34 4 10.68 4 10 C3.34 10 2.68 10 2 10 C0.68373308 6.38026598 0 3.90432869 0 0 Z " fill="#E0E0E0" transform="translate(296,307)"/>
<path d="M0 0 C2.95653744 1.3726781 5.5649856 2.81688364 8 5 C8.75 7.1875 8.75 7.1875 9 9 C6.25068173 8.31267043 4.46581179 7.64439778 2.77734375 5.30859375 C1.79675344 3.56883675 0.89311945 1.7862389 0 0 Z " fill="#DBDBDB" transform="translate(288,278)"/>
<path d="M0 0 C-0.66 1.65 -1.32 3.3 -2 5 C-2.33 4.34 -2.66 3.68 -3 3 C-4.32 3.33 -5.64 3.66 -7 4 C-7.33 2.68 -7.66 1.36 -8 0 C-4.94736336 -0.98120464 -3.05263664 -0.98120464 0 0 Z " fill="#030303" transform="translate(688,294)"/>
<path d="M0 0 C0.578125 1.91015625 0.578125 1.91015625 1 4 C-0.25 5.4375 -0.25 5.4375 -2 7 C-2.495 7.845625 -2.99 8.69125 -3.5 9.5625 C-5 12 -5 12 -8 14 C-6.6744419 10.37723685 -5.05653045 7.36494652 -2.875 4.1875 C-2.33617187 3.39730469 -1.79734375 2.60710938 -1.2421875 1.79296875 C-0.83226562 1.20128906 -0.42234375 0.60960937 0 0 Z " fill="#2B2B2B" transform="translate(287,664)"/>
<path d="M0 0 C0 3 0 3 -1.64453125 4.9375 C-2.71767578 5.9584375 -2.71767578 5.9584375 -3.8125 7 C-4.87404297 8.0209375 -4.87404297 8.0209375 -5.95703125 9.0625 C-6.96830078 10.0215625 -6.96830078 10.0215625 -8 11 C-9.00333145 11.99665741 -10.00472061 12.99530157 -11 14 C-11 11 -11 11 -8.59375 8.30078125 C-7.5700032 7.29697757 -6.5383946 6.30114351 -5.5 5.3125 C-4.97535156 4.80138672 -4.45070313 4.29027344 -3.91015625 3.76367188 C-2.61339096 2.50227292 -1.30753883 1.25022788 0 0 Z " fill="#D8D8D8" transform="translate(337,322)"/>
<path d="M0 0 C0.33 0.99 0.66 1.98 1 3 C0.67 3.66 0.34 4.32 0 5 C1.65 5 3.3 5 5 5 C4.01 5.495 4.01 5.495 3 6 C1.86649466 8.01669827 1.86649466 8.01669827 1 10 C-0.32 8.68 -1.64 7.36 -3 6 C-2 4 -1 2 0 0 Z " fill="#DEDEDE" transform="translate(683,642)"/>
<path d="M0 0 C0.66 0.33 1.32 0.66 2 1 C2 1.99 2 2.98 2 4 C-0.3125 6.25 -0.3125 6.25 -3 8 C-3.99 7.67 -4.98 7.34 -6 7 C-4.02 4.69 -2.04 2.38 0 0 Z " fill="#E1E1E1" transform="translate(552,448)"/>
<path d="M0 0 C0.66 0.33 1.32 0.66 2 1 C0.55049545 4.7910119 -1.15172566 8.3874638 -3 12 C-4.41116678 8.79280276 -3.89413879 7.71609948 -2.625 4.3125 C-1 1 -1 1 0 0 Z " fill="#141414" transform="translate(293,371)"/>
<path d="M0 0 C0.66 0.33 1.32 0.66 2 1 C2 1.66 2 2.32 2 3 C1.34 3 0.68 3 0 3 C0 3.99 0 4.98 0 6 C-2.3125 8.6875 -2.3125 8.6875 -5 11 C-5.99 11 -6.98 11 -8 11 C-5.36 7.37 -2.72 3.74 0 0 Z " fill="#E0E0E0" transform="translate(722,274)"/>
<path d="M0 0 C0.33 0.99 0.66 1.98 1 3 C-1.05233685 5.2477975 -2.00667261 6.0022242 -5 7 C-5.66 7.66 -6.32 8.32 -7 9 C-7.66 8.34 -8.32 7.68 -9 7 C-6.03 4.69 -3.06 2.38 0 0 Z " fill="#E7E7E7" transform="translate(593,627)"/>
<path d="M0 0 C2.08954032 4.17908064 2.16552619 4.80410573 1 9 C-0.32 9.33 -1.64 9.66 -3 10 C-2.01 6.7 -1.02 3.4 0 0 Z " fill="#1D1D1D" transform="translate(259,392)"/>
<path d="M0 0 C0.66 0.33 1.32 0.66 2 1 C1.67 1.99 1.34 2.98 1 4 C-0.65438613 4.69658363 -2.32254318 5.36096883 -4 6 C-5.77277259 7.52007842 -5.77277259 7.52007842 -7 9 C-7.99 8.67 -8.98 8.34 -10 8 C-6.7 5.36 -3.4 2.72 0 0 Z " fill="#D2D2D2" transform="translate(396,342)"/>
<path d="M0 0 C0.99 0.33 1.98 0.66 3 1 C-0.75 5.875 -0.75 5.875 -3 7 C-3 6.34 -3 5.68 -3 5 C-3.99 4.67 -4.98 4.34 -6 4 C-3.1875 1.9375 -3.1875 1.9375 0 0 Z " fill="#D6D6D6" transform="translate(321,672)"/>
<path d="M0 0 C3.3 0 6.6 0 10 0 C10 1.32 10 2.64 10 4 C6.7 3.01 3.4 2.02 0 1 C0 0.67 0 0.34 0 0 Z " fill="#2A2A2A" transform="translate(126,494)"/>
<path d="M0 0 C0.33 0.66 0.66 1.32 1 2 C1.66 2.33 2.32 2.66 3 3 C2.01 3.495 2.01 3.495 1 4 C0.27840576 5.64363134 -0.39351421 7.31050386 -1 9 C-0.34 9.33 0.32 9.66 1 10 C-0.32 11.32 -1.64 12.64 -3 14 C-2.48594831 9.03083364 -1.76615118 4.70973649 0 0 Z " fill="#3D3D3D" transform="translate(251,414)"/>
<path d="M0 0 C2 0 2 0 3.5078125 1.4609375 C4.04148437 2.09257812 4.57515625 2.72421875 5.125 3.375 C5.66382813 4.00148438 6.20265625 4.62796875 6.7578125 5.2734375 C8 7 8 7 8 9 C4.20620942 7.50958227 2.31656242 5.30937488 0 2 C0 1.34 0 0.68 0 0 Z " fill="#8C8C8C" transform="translate(604,348)"/>
<path d="M0 0 C1 2 1 2 1 6 C2.32 6.66 3.64 7.32 5 8 C3.35 8.33 1.7 8.66 0 9 C0 8.34 0 7.68 0 7 C-1.32 6.67 -2.64 6.34 -4 6 C-2.68 4.02 -1.36 2.04 0 0 Z " fill="#242424" transform="translate(686,312)"/>
<path d="M0 0 C0.66 0.33 1.32 0.66 2 1 C-1.625 5.875 -1.625 5.875 -5 7 C-5.99 6.34 -6.98 5.68 -8 5 C-6.71475739 4.13619741 -5.42157581 3.28419631 -4.125 2.4375 C-3.04605469 1.72400391 -3.04605469 1.72400391 -1.9453125 0.99609375 C-1.30335938 0.66738281 -0.66140625 0.33867187 0 0 Z " fill="#2D2D2D" transform="translate(366,271)"/>
<path d="M0 0 C0.66 0.33 1.32 0.66 2 1 C0.76446724 2.20254524 -0.48902339 3.38666232 -1.75 4.5625 C-2.79414063 5.55443359 -2.79414063 5.55443359 -3.859375 6.56640625 C-4.56578125 7.03949219 -5.2721875 7.51257813 -6 8 C-7.32 7.67 -8.64 7.34 -10 7 C-6.7 4.69 -3.4 2.38 0 0 Z " fill="#CDCDCD" transform="translate(302,684)"/>
<path d="M0 0 C0.78375 0.185625 1.5675 0.37125 2.375 0.5625 C4.97089775 1.25962266 4.97089775 1.25962266 7 0 C7.99 1.98 8.98 3.96 10 6 C6.40992874 4.66654496 3.20429093 3.1056769 0 1 C0 0.67 0 0.34 0 0 Z " fill="#CDCDCD" transform="translate(688,682)"/>
<path d="M0 0 C0.66 0.33 1.32 0.66 2 1 C1.67 2.32 1.34 3.64 1 5 C-1.98241547 5.77321882 -4.97580475 6.41196203 -8 7 C-5.4837822 4.39391727 -2.94865641 2.10618315 0 0 Z " fill="#262626" transform="translate(620,669)"/>
<path d="M0 0 C0.99 0.66 1.98 1.32 3 2 C0.03 4.475 0.03 4.475 -3 7 C-3.33 5.68 -3.66 4.36 -4 3 C-2.68 2.01 -1.36 1.02 0 0 Z " fill="#E0E0E0" transform="translate(650,639)"/>
<path d="M0 0 C2.97 1.98 2.97 1.98 6 4 C5.01 4.33 4.02 4.66 3 5 C3.33 5.66 3.66 6.32 4 7 C-0.875 5.25 -0.875 5.25 -2 3 C-1.34 3 -0.68 3 0 3 C0 2.01 0 1.02 0 0 Z " fill="#3C3C3C" transform="translate(588,334)"/>
<path d="M0 0 C2.75 -0.3125 2.75 -0.3125 6 0 C8.375 2.5 8.375 2.5 10 5 C5.27635085 5 3.7011388 3.7758541 0 1 C0 0.67 0 0.34 0 0 Z " fill="#1D1D1D" transform="translate(325,303)"/>
<path d="M0 0 C0.66 0.33 1.32 0.66 2 1 C-0.475 4.465 -0.475 4.465 -3 8 C-3.66 6.68 -4.32 5.36 -5 4 C-3.36587557 2.29159719 -2.13093906 1.06546953 0 0 Z " fill="#D8D8D8" transform="translate(699,291)"/>
<path d="M0 0 C0.66 0.33 1.32 0.66 2 1 C0.02 3.97 0.02 3.97 -2 7 C-2.33 6.34 -2.66 5.68 -3 5 C-5.02463255 4.34786708 -5.02463255 4.34786708 -7 4 C-1.7265625 0.77734375 -1.7265625 0.77734375 0 0 Z " fill="#303030" transform="translate(725,267)"/>
<path d="M0 0 C0 3.97054597 -1.3139381 5.16471244 -4 8 C-6.140625 8.6484375 -6.140625 8.6484375 -8 9 C-7.04270084 7.87411986 -6.08412105 6.7493285 -5.125 5.625 C-4.59132813 4.99851562 -4.05765625 4.37203125 -3.5078125 3.7265625 C-2.38567993 2.44163349 -1.20628025 1.20628025 0 0 Z " fill="#3F3F3F" transform="translate(664,628)"/>
<path d="M0 0 C1.98 1.65 3.96 3.3 6 5 C5.01 5.66 4.02 6.32 3 7 C1.68 5.68 0.36 4.36 -1 3 C-0.67 2.01 -0.34 1.02 0 0 Z " fill="#1E1E1E" transform="translate(546,520)"/>
<path d="M0 0 C0 3.61186134 -0.52269616 4.44011936 -3 7 C-6.1875 8.25 -6.1875 8.25 -9 9 C-6 6 -3 3 0 0 Z " fill="#E4E4E4" transform="translate(385,351)"/>
<path d="M0 0 C0.66 0.33 1.32 0.66 2 1 C1.67 2.32 1.34 3.64 1 5 C-1.64 5 -4.28 5 -7 5 C-4.702779 3.25728062 -2.40133271 1.60088848 0 0 Z " fill="#272727" transform="translate(687,289)"/>
<path d="M0 0 C1.65 0 3.3 0 5 0 C5 0.66 5 1.32 5 2 C5.66 2.33 6.32 2.66 7 3 C6.67 3.99 6.34 4.98 6 6 C3.97945196 4.35830472 1.97956942 2.69088222 0 1 C0 0.67 0 0.34 0 0 Z " fill="#E5E5E5" transform="translate(544,517)"/>
<path d="M0 0 C2.86724686 0.57344937 3.8614515 0.8614515 6 3 C4.02 3.66 2.04 4.32 0 5 C-0.66 4.34 -1.32 3.68 -2 3 C-1.34 2.01 -0.68 1.02 0 0 Z " fill="#1C1C1C" transform="translate(578,328)"/>
<path d="M0 0 C0.66 0.33 1.32 0.66 2 1 C1.34 1.66 0.68 2.32 0 3 C-0.495 3.515625 -0.99 4.03125 -1.5 4.5625 C-3 6 -3 6 -5 7 C-5.99 6.34 -6.98 5.68 -8 5 C-6.71475739 4.13619741 -5.42157581 3.28419631 -4.125 2.4375 C-3.04605469 1.72400391 -3.04605469 1.72400391 -1.9453125 0.99609375 C-1.30335938 0.66738281 -0.66140625 0.33867187 0 0 Z " fill="#272727" transform="translate(670,299)"/>
<path d="M0 0 C1.5 1.25 1.5 1.25 3 3 C3 4.32 3 5.64 3 7 C1.68 6.67 0.36 6.34 -1 6 C-1.042721 4.33388095 -1.04063832 2.66617115 -1 1 C-0.67 0.67 -0.34 0.34 0 0 Z " fill="#141414" transform="translate(714,699)"/>
<path d="M0 0 C0.66 0 1.32 0 2 0 C2.33 0.99 2.66 1.98 3 3 C1.0625 5.6875 1.0625 5.6875 -1 8 C-2.2077558 4.37673261 -1.54311128 3.35853631 0 0 Z " fill="#0C0C0C" transform="translate(348,387)"/>
<path d="M0 0 C0.66 0.33 1.32 0.66 2 1 C2.625 3.5625 2.625 3.5625 3 6 C0.525 5.01 0.525 5.01 -2 4 C-2 3.01 -2 2.02 -2 1 C-1.34 0.67 -0.68 0.34 0 0 Z " fill="#212121" transform="translate(363,697)"/>
<path d="M0 0 C1.5 1.375 1.5 1.375 3 3 C3 3.66 3 4.32 3 5 C1.35 5.66 -0.3 6.32 -2 7 C-1.34 4.69 -0.68 2.38 0 0 Z " fill="#DADADA" transform="translate(675,488)"/>
<path d="M0 0 C1.32 0.33 2.64 0.66 4 1 C5.25 3.5625 5.25 3.5625 6 6 C5.34 6.66 4.68 7.32 4 8 C2.68 5.36 1.36 2.72 0 0 Z " fill="#1A1A1A" transform="translate(680,368)"/>
<path d="M0 0 C2.37948772 0.17625835 3.70225849 0.69719773 5.37890625 2.40234375 C6.62115486 3.90649092 7.81376056 5.45129851 9 7 C5.18315774 5.44499019 2.80804268 2.96404505 0 0 Z " fill="#212121" transform="translate(596,343)"/>
<path d="M0 0 C1.5625 1.1875 1.5625 1.1875 3 3 C2.6875 5.6875 2.6875 5.6875 2 8 C1.01 7.67 0.02 7.34 -1 7 C-0.67 4.69 -0.34 2.38 0 0 Z " fill="#E0E0E0" transform="translate(507,834)"/>
<path d="M0 0 C0.66 1.32 1.32 2.64 2 4 C0.625 5.5 0.625 5.5 -1 7 C-1.66 7 -2.32 7 -3 7 C-1.125 1.125 -1.125 1.125 0 0 Z " fill="#2D2D2D" transform="translate(260,706)"/>
<path d="M0 0 C1.134375 0.020625 2.26875 0.04125 3.4375 0.0625 C1.26325883 2.56287734 -0.29295798 3.49878586 -3.5625 4.0625 C-3.8925 3.0725 -4.2225 2.0825 -4.5625 1.0625 C-3.5625 0.0625 -3.5625 0.0625 0 0 Z " fill="#E7E7E7" transform="translate(596.5625,681.9375)"/>
<path d="M0 0 C0.99 0.33 1.98 0.66 3 1 C1.25 4.875 1.25 4.875 -1 6 C-1.66 5.34 -2.32 4.68 -3 4 C-2.34 4 -1.68 4 -1 4 C-0.67 2.68 -0.34 1.36 0 0 Z " fill="#141414" transform="translate(687,632)"/>
<path d="M0 0 C1 4 1 4 1 8 C-0.98 8.99 -0.98 8.99 -3 10 C-2.01 6.7 -1.02 3.4 0 0 Z " fill="#363636" transform="translate(654,496)"/>
<path d="M0 0 C1.32 0.66 2.64 1.32 4 2 C3.01 3.485 3.01 3.485 2 5 C0.68 4.34 -0.64 3.68 -2 3 C-1.34 2.01 -0.68 1.02 0 0 Z " fill="#080808" transform="translate(575,326)"/>
<path d="M0 0 C1.32 0 2.64 0 4 0 C3.67 1.65 3.34 3.3 3 5 C1.68 3.68 0.36 2.36 -1 1 C-0.67 0.67 -0.34 0.34 0 0 Z " fill="#121212" transform="translate(642,321)"/>
</svg>
